<?xml version="1.0" encoding="UTF-8" standalone="no"?><!DOCTYPE svg PUBLIC "-//W3C//DTD SVG 1.1//EN" "http://www.w3.org/Graphics/SVG/1.1/DTD/svg11.dtd"><svg width="100%" height="100%" viewBox="0 0 3296 916" version="1.1" xmlns="http://www.w3.org/2000/svg" xmlns:xlink="http://www.w3.org/1999/xlink" xml:space="preserve" xmlns:serif="http://www.serif.com/" style="fill-rule:evenodd;clip-rule:evenodd;stroke-linejoin:round;stroke-miterlimit:2;"><g><g><rect x="0" y="0" width="915.193" height="915.193" style="fill:#36454f;"/><g><path d="M330.586,121.745l169.743,404.471c6.79,15.657 14.326,26.345 22.606,32.063c8.289,5.719 15.875,8.793 22.76,9.223l-0,12.902c-12.287,-0.86 -26.947,-1.398 -43.981,-1.613c-17.027,-0.215 -34.24,-0.322 -51.637,-0.322c-20.379,-0 -39.503,0.107 -57.374,0.322c-17.87,0.215 -32.247,0.753 -43.13,1.613l-0,-12.902c23.73,-0.86 38.805,-4.623 45.224,-11.289c6.42,-6.666 4.977,-20.965 -4.329,-42.898l-122.555,-306.68l12.279,-14.061l-111.387,267.581c-9.124,21.503 -14.617,39.203 -16.478,53.099c-1.861,13.89 -0.676,24.705 3.555,32.446c4.238,7.741 11.265,13.204 21.08,16.389c9.822,3.179 21.851,4.983 36.086,5.413l-0,12.902c-14.7,-0.86 -29.056,-1.398 -43.065,-1.613c-14.003,-0.215 -27.889,-0.322 -41.659,-0.322c-10.52,-0 -20.222,0.107 -29.106,0.322c-8.885,0.215 -16.817,0.753 -23.796,1.613l-0,-12.902c9.858,-1.975 19.811,-7.543 29.859,-16.702c10.055,-9.165 19.688,-24.886 28.899,-47.162l160.397,-381.893c5.583,0.343 11.585,0.514 18.004,0.514c6.42,0 12.422,-0.171 18.005,-0.514Zm60.863,272.873l0,12.902l-207.987,-0l6.979,-12.902l201.008,0Z" style="fill:#fff;fill-rule:nonzero;"/><path d="M664.587,319.821c26.057,0 46.064,2.604 60.023,7.812c13.959,5.201 26.057,10.812 36.293,16.833c5.584,3.01 10.121,5.268 13.61,6.773c3.49,1.505 6.863,2.258 10.121,2.258c4.653,-0 8.026,-2.366 10.12,-7.096c2.094,-4.731 3.838,-11.827 5.234,-21.288l16.053,-0c-0.465,7.996 -1.047,17.437 -1.745,28.323c-0.698,10.879 -1.163,25.243 -1.396,43.09c-0.232,17.848 -0.349,41.35 -0.349,70.507l-16.052,-0c-1.585,-21.846 -6.893,-42.919 -15.922,-63.219c-9.023,-20.3 -21.84,-36.985 -38.453,-50.055c-16.612,-13.077 -37.572,-19.615 -62.88,-19.615c-22.989,0 -41.997,6.192 -57.024,18.577c-15.028,12.384 -22.542,29.156 -22.542,50.317c0,17.975 4.886,33.178 14.657,45.609c9.771,12.432 23.614,24.302 41.528,35.611c17.914,11.31 39.012,24.363 63.295,39.159c22.894,13.588 43.389,27.111 61.484,40.57c18.103,13.46 32.484,28.448 43.142,44.965c10.658,16.517 15.987,36.471 15.987,59.863c0,28.041 -7.539,51.264 -22.618,69.669c-15.078,18.405 -35.086,32.167 -60.023,41.286c-24.937,9.119 -52.295,13.678 -82.074,13.678c-27.452,-0 -49.278,-2.581 -65.476,-7.741c-16.191,-5.161 -29.96,-10.537 -41.309,-16.127c-10.237,-6.021 -18.147,-9.032 -23.73,-9.032c-4.653,0 -8.027,2.366 -10.121,7.096c-2.093,4.731 -3.838,11.827 -5.234,21.288l-16.053,0c0.931,-9.891 1.512,-21.479 1.745,-34.764c0.233,-13.292 0.465,-30.602 0.698,-51.93c0.233,-21.335 0.349,-48.345 0.349,-81.029l16.053,-0c1.861,27.524 7.095,53.243 15.703,77.159c8.608,23.908 21.869,43.153 39.783,57.735c17.914,14.575 41.761,21.863 71.539,21.863c16.097,-0 30.728,-2.732 43.895,-8.195c13.166,-5.463 23.799,-13.893 31.898,-25.289c8.099,-11.397 12.149,-25.824 12.149,-43.282c-0,-17.807 -4.493,-33.353 -13.48,-46.638c-8.978,-13.291 -21.378,-25.72 -37.198,-37.284c-15.82,-11.571 -34.29,-23.378 -55.41,-35.42c-21.869,-12.989 -42.342,-26.105 -61.419,-39.35c-19.077,-13.244 -34.316,-28.404 -45.716,-45.479c-11.399,-17.075 -17.099,-37.566 -17.099,-61.475c-0,-26.576 6.954,-48.402 20.862,-65.476c13.915,-17.075 32.178,-29.718 54.788,-37.93c22.618,-8.218 46.723,-12.327 72.314,-12.327Z" style="fill:#fff;fill-rule:nonzero;"/></g></g><g><path d="M1258.07,413.634c18.833,0 33.293,2.036 43.382,6.109c10.089,4.067 18.833,8.454 26.231,13.163c4.036,2.354 7.315,4.119 9.837,5.296c2.522,1.177 4.96,1.766 7.314,1.766c3.363,-0 5.801,-1.85 7.315,-5.549c1.513,-3.699 2.774,-9.248 3.783,-16.647l11.602,0c-0.336,6.253 -0.756,13.636 -1.261,22.148c-0.504,8.508 -0.841,19.739 -1.009,33.696c-0.168,13.956 -0.252,32.334 -0.252,55.134l-11.602,-0c-1.146,-17.083 -4.982,-33.561 -11.508,-49.436c-6.521,-15.874 -15.785,-28.921 -27.791,-39.141c-12.007,-10.226 -27.156,-15.339 -45.448,-15.339c-16.615,0 -30.353,4.843 -41.214,14.527c-10.861,9.684 -16.292,22.8 -16.292,39.346c-0,14.057 3.531,25.945 10.593,35.666c7.062,9.721 17.067,19.003 30.015,27.847c12.947,8.843 28.196,19.051 45.746,30.621c16.547,10.625 31.36,21.2 44.439,31.725c13.083,10.525 23.477,22.245 31.18,35.161c7.704,12.916 11.555,28.52 11.555,46.811c0,21.927 -5.449,40.087 -16.347,54.48c-10.898,14.392 -25.359,25.154 -43.382,32.284c-18.023,7.131 -37.796,10.696 -59.319,10.696c-19.842,-0 -35.616,-2.018 -47.323,-6.053c-11.702,-4.036 -21.655,-8.24 -29.857,-12.611c-7.399,-4.709 -13.116,-7.063 -17.151,-7.063c-3.363,0 -5.801,1.85 -7.315,5.549c-1.513,3.699 -2.774,9.248 -3.783,16.647l-11.602,-0c0.672,-7.735 1.093,-16.797 1.261,-27.185c0.168,-10.394 0.336,-23.929 0.504,-40.608c0.169,-16.683 0.253,-37.804 0.253,-63.362l11.602,-0c1.345,21.523 5.128,41.635 11.35,60.336c6.221,18.696 15.806,33.745 28.753,45.147c12.947,11.398 30.183,17.096 51.706,17.096c11.633,0 22.208,-2.136 31.724,-6.408c9.516,-4.272 17.201,-10.864 23.055,-19.775c5.854,-8.912 8.78,-20.194 8.78,-33.845c0,-13.925 -3.247,-26.082 -9.742,-36.47c-6.489,-10.394 -15.451,-20.112 -26.885,-29.155c-11.434,-9.049 -24.783,-18.281 -40.048,-27.697c-15.806,-10.158 -30.603,-20.415 -44.391,-30.771c-13.788,-10.357 -24.802,-22.212 -33.041,-35.564c-8.239,-13.352 -12.359,-29.376 -12.359,-48.071c0,-20.783 5.026,-37.849 15.078,-51.201c10.058,-13.352 23.257,-23.239 39.599,-29.66c16.347,-6.427 33.769,-9.64 52.265,-9.64Z" style="fill:#36454f;fill-rule:nonzero;"/><path d="M1615.01,418.277l122.682,316.286c4.908,12.243 10.354,20.6 16.339,25.072c5.991,4.472 11.474,6.876 16.45,7.212l-0,10.089c-8.88,-0.673 -19.476,-1.093 -31.788,-1.261c-12.306,-0.168 -24.747,-0.253 -37.321,-0.253c-14.729,0 -28.551,0.085 -41.467,0.253c-12.916,0.168 -23.307,0.588 -31.173,1.261l0,-10.089c17.151,-0.673 28.047,-3.615 32.687,-8.828c4.639,-5.212 3.596,-16.394 -3.129,-33.545l-88.578,-239.816l8.876,-10.995l-80.506,209.241c-6.595,16.815 -10.565,30.656 -11.91,41.522c-1.345,10.862 -0.489,19.319 2.569,25.372c3.064,6.054 8.142,10.326 15.236,12.816c7.099,2.486 15.793,3.897 26.081,4.233l0,10.089c-10.624,-0.673 -21,-1.093 -31.125,-1.261c-10.121,-0.168 -20.157,-0.253 -30.109,-0.253c-7.604,0 -14.616,0.085 -21.037,0.253c-6.421,0.168 -12.154,0.588 -17.198,1.261l-0,-10.089c7.125,-1.545 14.318,-5.898 21.58,-13.06c7.267,-7.168 14.23,-19.461 20.887,-36.88l115.928,-298.63c4.035,0.268 8.373,0.402 13.013,0.402c4.64,-0 8.977,-0.134 13.013,-0.402Zm43.989,213.379l-0,10.089l-150.324,0l5.044,-10.089l145.28,0Z" style="fill:#36454f;fill-rule:nonzero;"/><path d="M1996.98,412.728c22.532,-0 40.86,3.245 54.984,9.734c14.124,6.489 27.004,14.174 38.637,23.055c4.104,3.226 7.467,4.839 10.089,4.839c6.39,0 10.593,-10.189 12.611,-30.566l11.602,0c-0.672,12.848 -1.177,28.485 -1.513,46.913c-0.336,18.428 -0.504,42.81 -0.504,73.144l-11.603,0c-2.354,-18.159 -5.717,-34.436 -10.088,-48.828c-4.372,-14.392 -12.241,-26.701 -23.607,-36.927c-8.675,-9.348 -19.639,-16.628 -32.891,-21.841c-13.247,-5.212 -26.665,-7.819 -40.253,-7.819c-17.892,0 -33.48,4.59 -46.763,13.77c-13.284,9.18 -24.366,21.809 -33.246,37.889c-8.875,16.073 -15.517,34.62 -19.926,55.638c-4.403,21.019 -6.605,43.466 -6.605,67.343c0,60.533 8.809,104.806 26.428,132.819c17.624,28.012 43.655,42.018 78.094,42.018c9.416,0 17.606,-1.261 24.568,-3.783c6.963,-2.522 12.561,-5.197 16.797,-8.024c5.312,-3.699 8.809,-7.514 10.49,-11.445c1.682,-3.935 2.523,-9.032 2.523,-15.29l-0,-49.231c-0,-14.865 -1.311,-25.929 -3.933,-33.191c-2.623,-7.267 -7.583,-12.212 -14.882,-14.834c-7.298,-2.622 -18.01,-4.101 -32.134,-4.437l-0,-10.089c6.726,0.336 14.729,0.589 24.008,0.757c9.285,0.168 19.022,0.336 29.211,0.504c10.188,0.168 19.52,0.252 27.996,0.252c13.116,0 25.07,-0.168 35.863,-0.504c10.798,-0.336 19.694,-0.673 26.688,-1.009l0,10.089c-6.726,0.336 -11.804,1.513 -15.236,3.531c-3.426,2.018 -5.696,6.053 -6.81,12.107c-1.108,6.053 -1.663,15.301 -1.663,27.744l0,99.88l-10.089,-0c-0.336,-5.717 -1.631,-11.939 -3.885,-18.665c-2.249,-6.726 -5.762,-10.088 -10.538,-10.088c-2.286,-0 -5.011,0.572 -8.174,1.718c-3.163,1.14 -8.342,3.83 -15.535,8.071c-11.907,7.598 -24.521,13.835 -37.841,18.712c-13.316,4.876 -27.808,7.314 -43.477,7.314c-37.597,-0 -69.461,-7.18 -95.592,-21.541c-26.131,-14.361 -45.923,-35.059 -59.375,-62.094c-13.451,-27.04 -20.177,-59.427 -20.177,-97.161c-0,-38.674 7.566,-72.235 22.7,-100.683c15.133,-28.449 35.899,-50.526 62.298,-66.232c26.4,-15.706 56.65,-23.559 90.753,-23.559Z" style="fill:#36454f;fill-rule:nonzero;"/><path d="M2543.8,419.79l0,10.089c-10.898,1.009 -19.156,3.431 -24.773,7.267c-5.612,3.831 -9.361,9.884 -11.247,18.16c-1.881,8.271 -2.822,19.973 -2.822,35.106l0,288.037c-3.232,-0.268 -6.579,-0.402 -10.042,-0.402c-3.462,0 -7.143,0.134 -11.042,0.402l-216.509,-294.09l0,217.919c0,16.279 1.025,28.874 3.074,37.786c2.055,8.912 6.495,15.267 13.321,19.067c6.825,3.799 17.335,6.371 31.527,7.716l0,10.089c-6.321,-0.673 -14.56,-1.093 -24.717,-1.261c-10.157,-0.168 -19.742,-0.253 -28.754,-0.253c-8.002,0 -16.123,0.085 -24.363,0.253c-8.239,0.168 -15.083,0.588 -20.532,1.261l-0,-10.089c11.029,-1.345 19.319,-3.849 24.867,-7.512c5.549,-3.667 9.264,-9.721 11.146,-18.16c1.886,-8.444 2.829,-20.064 2.829,-34.861l0,-233.053c0,-12.443 -0.943,-21.607 -2.829,-27.492c-1.882,-5.885 -5.631,-9.921 -11.248,-12.107c-5.617,-2.186 -13.872,-3.447 -24.765,-3.783l-0,-10.089c5.449,0.336 12.293,0.673 20.532,1.009c8.24,0.336 16.361,0.504 24.363,0.504c7.804,0 15.336,-0.168 22.598,-0.504c7.262,-0.336 13.785,-0.673 19.571,-1.009l189.371,251.82l-0,-177.162c-0,-16.479 -1.027,-29.124 -3.082,-37.936c-2.049,-8.812 -6.455,-15.202 -13.218,-19.169c-6.757,-3.967 -17.298,-6.455 -31.622,-7.464l-0,-10.089c6.321,0.336 14.61,0.673 24.867,1.009c10.257,0.336 19.792,0.504 28.604,0.504c8.339,0 16.594,-0.168 24.765,-0.504c8.171,-0.336 14.881,-0.673 20.13,-1.009Z" style="fill:#36454f;fill-rule:nonzero;"/><path d="M2876.83,419.79c-1.345,13.788 -2.27,27.14 -2.774,40.056c-0.505,12.911 -0.757,22.763 -0.757,29.557c-0,6.442 0.168,12.619 0.504,18.531c0.337,5.906 0.673,10.827 1.009,14.762l-11.602,0c-2.827,-23.067 -7.233,-41.277 -13.218,-54.629c-5.985,-13.352 -14.174,-22.803 -24.568,-28.351c-10.393,-5.549 -23.693,-8.324 -39.898,-8.324l-27.745,0c-10.309,0 -18.117,0.859 -23.425,2.578c-5.301,1.713 -8.861,5.217 -10.68,10.514c-1.812,5.297 -2.719,13.544 -2.719,24.741l0,258.275c0,10.898 0.907,19.072 2.719,24.521c1.819,5.444 5.379,9.025 10.68,10.743c5.308,1.713 13.116,2.57 23.425,2.57l28.754,-0c17.151,-0 31.459,-3.161 42.925,-9.482c11.465,-6.322 20.745,-16.865 27.839,-31.631c7.099,-14.765 12.432,-34.859 16,-60.28l11.602,-0c-1.009,10.288 -1.513,23.74 -1.513,40.355c-0,7.183 0.218,17.487 0.654,30.913c0.436,13.425 1.395,27.334 2.877,41.727c-17.151,-0.673 -36.488,-1.093 -58.011,-1.261c-21.523,-0.168 -40.692,-0.253 -57.507,-0.253l-30.897,0c-12.574,0 -26.149,0.085 -40.726,0.253c-14.576,0.168 -29.336,0.336 -44.28,0.504c-14.944,0.168 -29.108,0.42 -42.492,0.757l0,-10.089c11.03,-0.673 19.311,-2.018 24.844,-4.036c5.533,-2.017 9.248,-6.053 11.145,-12.106c1.902,-6.054 2.853,-15.134 2.853,-27.24l0,-250.204c0,-12.443 -0.959,-21.607 -2.876,-27.492c-1.913,-5.885 -5.662,-9.921 -11.248,-12.107c-5.586,-2.186 -13.825,-3.447 -24.718,-3.783l0,-10.089c13.447,0.336 27.619,0.589 42.515,0.757c14.903,0.168 29.644,0.336 44.226,0.504c14.587,0.168 28.17,0.252 40.749,0.252l30.905,0c15.47,0 33.041,-0.084 52.715,-0.252c19.673,-0.168 37.244,-0.588 52.714,-1.261Zm-81.318,172.52l0,10.088l-89.688,0l-0,-10.088l89.688,-0Zm14.629,-66.587c-1.345,19.169 -1.934,33.798 -1.765,43.887c0.168,10.089 0.252,19.337 0.252,27.744c-0,8.407 0.168,17.656 0.504,27.744c0.337,10.089 1.177,24.718 2.522,43.887l-11.602,-0c-1.613,-11.434 -4.219,-22.245 -7.819,-32.434c-3.599,-10.189 -9.216,-18.428 -16.851,-24.718c-7.635,-6.29 -18.447,-9.435 -32.434,-9.435l-0,-10.088c10.425,-0 18.95,-2.168 25.577,-6.503c6.626,-4.34 11.922,-9.973 15.89,-16.899c3.967,-6.931 7.025,-14.214 9.174,-21.849c2.154,-7.634 3.804,-14.747 4.95,-21.336l11.602,0Z" style="fill:#36454f;fill-rule:nonzero;"/><path d="M2963.59,419.79c8.134,0.336 18.828,0.673 32.08,1.009c13.252,0.336 26.436,0.504 39.551,0.504c16.205,0 31.741,-0.168 46.606,-0.504c14.865,-0.336 25.393,-0.505 31.583,-0.505c30.062,0 54.963,3.6 74.705,10.799c19.741,7.193 34.504,17.366 44.288,30.519c9.79,13.147 14.684,28.632 14.684,46.456c0,11.029 -2.22,22.329 -6.66,33.9c-4.44,11.565 -12.059,22.292 -22.857,32.182c-10.793,9.889 -25.541,17.91 -44.242,24.063c-18.696,6.153 -42.368,9.23 -71.016,9.23l-48.426,-0l-0,-10.089l43.382,0c21.186,0 37.344,-3.783 48.474,-11.35c11.129,-7.567 18.695,-17.655 22.699,-30.267c4.005,-12.611 6.007,-26.651 6.007,-42.121c-0,-26.567 -5.231,-47.165 -15.693,-61.794c-10.457,-14.629 -28.43,-21.943 -53.921,-21.943c-13.856,-0 -22.87,2.858 -27.043,8.575c-4.166,5.717 -6.25,17.32 -6.25,34.807l0,250.204c0,12.106 0.975,21.186 2.924,27.24c1.95,6.053 5.699,10.089 11.248,12.106c5.549,2.018 13.772,3.363 24.67,4.036l0,10.089c-8.544,-0.673 -19.358,-1.093 -32.442,-1.261c-13.078,-0.168 -26.31,-0.253 -39.693,-0.253c-15.133,0 -29.326,0.085 -42.578,0.253c-13.252,0.168 -23.946,0.588 -32.08,1.261l0,-10.089c11.03,-0.673 19.319,-2.018 24.868,-4.036c5.549,-2.017 9.264,-6.053 11.145,-12.106c1.886,-6.054 2.829,-15.134 2.829,-27.24l0,-250.204c0,-12.443 -0.943,-21.607 -2.829,-27.492c-1.881,-5.885 -5.631,-9.921 -11.248,-12.107c-5.617,-2.186 -13.872,-3.447 -24.765,-3.783l0,-10.089Zm90.296,179.077c15.737,0.536 28.884,1.259 39.441,2.168c10.562,0.909 19.626,1.734 27.192,2.475c7.567,0.741 14.445,1.479 20.635,2.215c27.913,2.895 48.443,9.471 61.59,19.728c13.147,10.257 21.94,25.811 26.38,46.661l11.808,51.855c3.095,13.857 6.373,23.693 9.836,29.51c3.463,5.817 8.557,8.626 15.283,8.426c4.777,-0.205 8.794,-1.516 12.052,-3.933c3.263,-2.423 6.678,-5.82 10.246,-10.191l7.165,5.95c-8.408,10.426 -17.338,18.076 -26.791,22.953c-9.448,4.876 -21.402,7.314 -35.863,7.314c-16.21,-0 -29.83,-3.799 -40.859,-11.397c-11.03,-7.604 -18.562,-21.965 -22.598,-43.083l-9.687,-50.444c-2.622,-14.193 -5.698,-26.617 -9.23,-37.274c-3.531,-10.661 -8.375,-19.053 -14.534,-25.175c-6.153,-6.121 -15.012,-9.182 -26.578,-9.182l-54.48,-0l-1.008,-8.576Z" style="fill:#36454f;fill-rule:nonzero;"/></g><rect x="1142.37" y="873.527" width="2153.14" height="41.667" style="fill:#708090;"/><g><path d="M1237.32,131.868l63.041,162.662c2.594,6.226 5.405,10.507 8.431,12.841c3.027,2.335 5.838,3.589 8.432,3.762l-0,5.189c-4.497,-0.346 -9.902,-0.562 -16.214,-0.649c-6.313,-0.086 -12.756,-0.13 -19.328,-0.13c-7.61,0 -14.701,0.044 -21.273,0.13c-6.572,0.087 -11.934,0.303 -16.084,0.649l-0,-5.189c8.82,-0.346 14.441,-1.859 16.862,-4.54c2.422,-2.681 1.903,-8.431 -1.556,-17.252l-45.659,-123.228l4.669,-5.707l-41.508,107.662c-3.286,8.648 -5.275,15.739 -5.967,21.273c-0.692,5.535 -0.259,9.858 1.297,12.972c1.557,3.113 4.151,5.318 7.783,6.615c3.632,1.297 8.129,2.032 13.49,2.205l0,5.189c-5.534,-0.346 -10.896,-0.562 -16.084,-0.649c-5.189,-0.086 -10.377,-0.13 -15.566,-0.13c-3.805,0 -7.394,0.044 -10.766,0.13c-3.373,0.087 -6.356,0.303 -8.951,0.649l0,-5.189c3.805,-0.865 7.567,-3.113 11.286,-6.745c3.718,-3.632 7.307,-9.945 10.766,-18.938l59.409,-153.582c2.075,0.173 4.324,0.26 6.745,0.26c2.421,-0 4.67,-0.087 6.745,-0.26Zm22.57,109.738l0,5.189l-77.309,0l2.594,-5.189l74.715,0Z" style="fill:#708090;fill-rule:nonzero;"/><path d="M1474.18,132.647l-0,5.188c-5.881,0.173 -10.334,0.822 -13.361,1.946c-3.026,1.124 -5.059,3.2 -6.096,6.226c-1.038,3.027 -1.557,7.74 -1.557,14.139l0,130.752c0,5.534 0.476,9.728 1.427,12.582c0.951,2.854 2.724,4.713 5.318,5.578c2.594,0.864 6.313,1.297 11.156,1.297l14.787,-0c6.745,-0 12.669,-1.211 17.771,-3.632c5.102,-2.421 9.555,-5.967 13.36,-10.637c3.805,-4.669 6.918,-10.42 9.34,-17.252c2.421,-6.831 4.151,-14.571 5.188,-23.218l5.967,-0c-0.519,5.707 -0.778,13.144 -0.778,22.31c-0,3.805 0.13,9.253 0.389,16.344c0.259,7.091 0.735,14.442 1.427,22.052c-8.821,-0.346 -18.765,-0.562 -29.834,-0.649c-11.069,-0.086 -20.928,-0.13 -29.575,-0.13l-15.825,0c-6.399,0 -13.361,0.044 -20.884,0.13c-7.524,0.087 -15.133,0.173 -22.83,0.26c-7.696,0.086 -15.003,0.216 -21.921,0.389l-0,-5.189c5.707,-0.346 9.987,-1.038 12.841,-2.075c2.854,-1.038 4.756,-3.113 5.708,-6.227c0.951,-3.113 1.426,-7.782 1.426,-14.009l0,-128.676c0,-6.399 -0.475,-11.112 -1.426,-14.139c-0.952,-3.026 -2.854,-5.102 -5.708,-6.226c-2.854,-1.124 -7.134,-1.773 -12.841,-1.946l-0,-5.188c4.323,0.173 9.858,0.346 16.603,0.519c6.745,0.173 14.009,0.259 21.792,0.259c7.091,0 14.095,-0.086 21.013,-0.259c6.919,-0.173 12.626,-0.346 17.123,-0.519Z" style="fill:#708090;fill-rule:nonzero;"/><path d="M1767.59,132.647c-0.692,7.091 -1.168,13.966 -1.427,20.624c-0.26,6.659 -0.389,11.718 -0.389,15.177c-0,3.286 0.086,6.442 0.259,9.469c0.173,3.027 0.346,5.578 0.519,7.653l-5.967,0c-1.383,-11.934 -3.632,-21.316 -6.745,-28.148c-3.113,-6.832 -7.307,-11.674 -12.582,-14.528c-5.275,-2.854 -12.15,-4.28 -20.625,-4.28l-14.268,-0c-5.189,-0 -9.167,0.432 -11.934,1.297c-2.767,0.864 -4.626,2.68 -5.578,5.448c-0.951,2.767 -1.427,7.004 -1.427,12.712l0,132.827c0,5.534 0.476,9.728 1.427,12.582c0.952,2.854 2.811,4.713 5.578,5.578c2.767,0.864 6.745,1.297 11.934,1.297l14.787,-0c8.821,-0 16.214,-1.643 22.181,-4.929c5.967,-3.286 10.766,-8.691 14.398,-16.215c3.632,-7.523 6.313,-17.857 8.043,-31.001l5.967,-0c-0.519,5.361 -0.779,12.279 -0.779,20.754c0,3.632 0.13,8.907 0.389,15.825c0.26,6.918 0.735,14.096 1.427,21.533c-8.82,-0.346 -18.765,-0.562 -29.834,-0.649c-11.069,-0.086 -20.927,-0.13 -29.575,-0.13l-15.695,0c-6.486,0 -13.49,0.044 -21.014,0.13c-7.523,0.087 -15.133,0.173 -22.829,0.26c-7.697,0.086 -15.004,0.216 -21.922,0.389l-0,-5.189c5.707,-0.346 9.988,-1.038 12.842,-2.075c2.853,-1.038 4.756,-3.113 5.707,-6.227c0.951,-3.113 1.427,-7.782 1.427,-14.009l-0,-128.676c-0,-6.399 -0.476,-11.112 -1.427,-14.139c-0.951,-3.026 -2.854,-5.102 -5.707,-6.226c-2.854,-1.124 -7.135,-1.773 -12.842,-1.946l-0,-5.188c6.918,0.173 14.225,0.302 21.922,0.389c7.696,0.086 15.306,0.173 22.829,0.259c7.524,0.087 14.528,0.13 21.014,0.13l15.695,0c7.956,0 16.993,-0.043 27.11,-0.13c10.118,-0.086 19.155,-0.302 27.111,-0.648Zm-41.768,88.724l-0,5.189l-46.178,-0l-0,-5.189l46.178,0Zm7.523,-34.244c-0.692,9.858 -0.994,17.381 -0.908,22.57c0.087,5.188 0.13,9.945 0.13,14.268c-0,4.324 0.086,9.08 0.259,14.269c0.173,5.188 0.606,12.712 1.297,22.57l-5.966,0c-0.865,-5.88 -2.205,-11.458 -4.021,-16.733c-1.816,-5.275 -4.67,-9.512 -8.562,-12.712c-3.891,-3.2 -9.469,-4.799 -16.733,-4.799l0,-5.189c5.362,0 9.729,-1.124 13.101,-3.372c3.373,-2.249 6.097,-5.146 8.172,-8.691c2.076,-3.546 3.676,-7.264 4.8,-11.156c1.124,-3.891 1.946,-7.566 2.464,-11.025l5.967,-0Z" style="fill:#708090;fill-rule:nonzero;"/><path d="M1856.84,365.094l-0,-5.188c7.091,-0.346 13.187,-2.249 18.29,-5.708c5.102,-3.459 8.95,-9.339 11.544,-17.641c2.594,-8.302 3.892,-19.63 3.892,-33.985l-0,-142.426c-0,-6.399 -0.476,-11.112 -1.427,-14.139c-0.952,-3.026 -2.897,-5.102 -5.837,-6.226c-2.941,-1.124 -7.178,-1.773 -12.712,-1.946l-0,-5.188c3.977,0.173 9.296,0.346 15.954,0.519c6.659,0.173 13.62,0.259 20.884,0.259c7.264,0 14.399,-0.086 21.403,-0.259c7.005,-0.173 12.755,-0.346 17.252,-0.519l0,5.188c-5.707,0.173 -9.988,0.822 -12.842,1.946c-2.853,1.124 -4.756,3.2 -5.707,6.226c-0.951,3.027 -1.427,7.74 -1.427,14.139l0,94.951c0,7.091 -0.043,14.787 -0.13,23.089c-0.086,8.301 -0.432,16.344 -1.037,24.127c-0.606,7.782 -1.687,14.614 -3.243,20.494c-3.286,12.107 -10.377,22.181 -21.273,30.224c-10.896,8.042 -25.424,12.063 -43.584,12.063Z" style="fill:#708090;fill-rule:nonzero;"/><path d="M2119.9,131.868l63.041,162.662c2.594,6.226 5.404,10.507 8.431,12.841c3.027,2.335 5.837,3.589 8.432,3.762l-0,5.189c-4.497,-0.346 -9.902,-0.562 -16.215,-0.649c-6.312,-0.086 -12.755,-0.13 -19.327,-0.13c-7.61,0 -14.701,0.044 -21.273,0.13c-6.572,0.087 -11.934,0.303 -16.085,0.649l0,-5.189c8.821,-0.346 14.442,-1.859 16.863,-4.54c2.421,-2.681 1.903,-8.431 -1.556,-17.252l-45.66,-123.228l4.67,-5.707l-41.509,107.662c-3.286,8.648 -5.275,15.739 -5.966,21.273c-0.692,5.535 -0.26,9.858 1.297,12.972c1.556,3.113 4.151,5.318 7.783,6.615c3.632,1.297 8.128,2.032 13.49,2.205l-0,5.189c-5.535,-0.346 -10.896,-0.562 -16.085,-0.649c-5.188,-0.086 -10.377,-0.13 -15.565,-0.13c-3.805,0 -7.394,0.044 -10.767,0.13c-3.372,0.087 -6.356,0.303 -8.95,0.649l0,-5.189c3.805,-0.865 7.567,-3.113 11.285,-6.745c3.719,-3.632 7.307,-9.945 10.767,-18.938l59.409,-153.582c2.075,0.173 4.323,0.26 6.745,0.26c2.421,-0 4.669,-0.087 6.745,-0.26Zm22.57,109.738l-0,5.189l-77.31,0l2.595,-5.189l74.715,0Z" style="fill:#708090;fill-rule:nonzero;"/><path d="M2448.59,132.647l-0,5.188c-5.535,0.519 -9.772,1.773 -12.712,3.762c-2.94,1.989 -4.886,5.102 -5.837,9.339c-0.951,4.238 -1.427,10.248 -1.427,18.031l-0,148.133c-1.557,-0.173 -3.243,-0.259 -5.059,-0.259c-1.816,-0 -3.762,0.086 -5.837,0.259l-111.295,-151.247l0,112.073c0,8.302 0.519,14.744 1.557,19.328c1.038,4.583 3.329,7.869 6.875,9.858c3.545,1.989 8.95,3.329 16.214,4.021l0,5.189c-3.286,-0.346 -7.523,-0.562 -12.712,-0.649c-5.188,-0.086 -10.118,-0.13 -14.787,-0.13c-4.151,0 -8.345,0.044 -12.583,0.13c-4.237,0.087 -7.739,0.303 -10.506,0.649l-0,-5.189c5.707,-0.692 9.988,-1.989 12.841,-3.891c2.854,-1.903 4.756,-5.016 5.708,-9.34c0.951,-4.324 1.427,-10.29 1.427,-17.9l-0,-119.856c-0,-6.399 -0.476,-11.112 -1.427,-14.139c-0.952,-3.026 -2.854,-5.102 -5.708,-6.226c-2.853,-1.124 -7.134,-1.773 -12.841,-1.946l-0,-5.188c2.767,0.173 6.269,0.346 10.506,0.519c4.238,0.173 8.432,0.259 12.583,0.259c3.978,0 7.869,-0.086 11.674,-0.259c3.805,-0.173 7.177,-0.346 10.118,-0.519l97.285,129.454l0,-91.059c0,-8.475 -0.519,-14.96 -1.556,-19.457c-1.038,-4.497 -3.287,-7.783 -6.746,-9.858c-3.459,-2.076 -8.907,-3.373 -16.344,-3.892l0,-5.188c3.287,0.173 7.567,0.346 12.842,0.519c5.275,0.173 10.161,0.259 14.658,0.259c4.324,0 8.604,-0.086 12.842,-0.259c4.237,-0.173 7.653,-0.346 10.247,-0.519Z" style="fill:#708090;fill-rule:nonzero;"/><path d="M2620.85,132.647c33.207,-0 57.809,7.739 73.807,23.219c15.998,15.479 23.997,37.66 23.997,66.543c0,18.852 -3.934,35.325 -11.804,49.421c-7.869,14.095 -19.241,25.035 -34.114,32.817c-14.874,7.783 -32.948,11.675 -54.221,11.675c-2.594,-0 -6.096,-0.087 -10.507,-0.26c-4.41,-0.173 -8.993,-0.302 -13.749,-0.389c-4.757,-0.086 -9.124,-0.13 -13.101,-0.13c-7.091,0 -14.01,0.044 -20.755,0.13c-6.745,0.087 -12.279,0.303 -16.603,0.649l-0,-5.189c5.707,-0.346 9.988,-1.038 12.842,-2.075c2.853,-1.038 4.756,-3.113 5.707,-6.227c0.951,-3.113 1.427,-7.782 1.427,-14.009l-0,-128.676c-0,-6.399 -0.476,-11.112 -1.427,-14.139c-0.951,-3.026 -2.854,-5.102 -5.707,-6.226c-2.854,-1.124 -7.135,-1.773 -12.842,-1.946l-0,-5.188c4.324,0.173 9.858,0.389 16.603,0.648c6.745,0.26 13.491,0.303 20.236,0.13c6.226,-0.173 13.231,-0.346 21.013,-0.519c7.783,-0.173 14.182,-0.259 19.198,-0.259Zm-2.335,4.669c-7.956,0 -13.144,1.471 -15.565,4.411c-2.422,2.94 -3.632,8.907 -3.632,17.9l-0,129.714c-0,8.994 1.253,14.961 3.761,17.901c2.508,2.94 7.74,4.41 15.696,4.41c16.084,-0 28.666,-3.416 37.746,-10.247c9.08,-6.832 15.48,-16.82 19.198,-29.964c3.718,-13.145 5.578,-29.143 5.578,-47.995c-0,-19.37 -2.032,-35.411 -6.097,-48.123c-4.064,-12.712 -10.68,-22.225 -19.846,-28.537c-9.167,-6.313 -21.446,-9.47 -36.839,-9.47Z" style="fill:#708090;fill-rule:nonzero;"/><path d="M2815.94,132.647c4.324,0.173 9.858,0.346 16.603,0.519c6.745,0.173 13.49,0.259 20.236,0.259c8.474,0 16.516,-0.086 24.126,-0.259c7.61,-0.173 12.972,-0.26 16.085,-0.26c15.566,0 28.407,1.859 38.525,5.578c10.118,3.718 17.684,8.95 22.7,15.695c5.015,6.745 7.523,14.701 7.523,23.868c0,5.707 -1.124,11.544 -3.372,17.511c-2.249,5.967 -6.14,11.458 -11.675,16.474c-5.534,5.015 -13.101,9.123 -22.699,12.322c-9.599,3.2 -21.836,4.8 -36.71,4.8l-24.905,-0l0,-5.189l22.311,0c10.896,0 19.241,-1.945 25.035,-5.837c5.794,-3.891 9.685,-9.08 11.674,-15.565c1.989,-6.486 2.984,-13.707 2.984,-21.663c-0,-13.663 -2.681,-24.256 -8.043,-31.78c-5.361,-7.523 -14.614,-11.285 -27.758,-11.285c-7.091,0 -11.718,1.47 -13.88,4.411c-2.162,2.94 -3.243,8.907 -3.243,17.9l0,128.676c0,6.227 0.519,10.896 1.557,14.009c1.038,3.114 2.983,5.189 5.837,6.227c2.854,1.037 7.048,1.729 12.582,2.075l0,5.189c-4.323,-0.346 -9.858,-0.562 -16.603,-0.649c-6.745,-0.086 -13.577,-0.13 -20.495,-0.13c-7.783,0 -15.047,0.044 -21.792,0.13c-6.745,0.087 -12.279,0.303 -16.603,0.649l-0,-5.189c5.707,-0.346 9.988,-1.038 12.841,-2.075c2.854,-1.038 4.757,-3.113 5.708,-6.227c0.951,-3.113 1.427,-7.782 1.427,-14.009l-0,-128.676c-0,-6.399 -0.476,-11.112 -1.427,-14.139c-0.951,-3.026 -2.854,-5.102 -5.708,-6.226c-2.853,-1.124 -7.134,-1.773 -12.841,-1.946l-0,-5.188Zm46.437,92.097c8.129,0.346 14.918,0.735 20.365,1.167c5.448,0.432 10.118,0.822 14.01,1.167c3.891,0.346 7.393,0.779 10.506,1.298c14.355,1.383 24.949,4.713 31.78,9.988c6.832,5.275 11.372,13.274 13.62,23.997l5.967,26.721c1.557,7.091 3.243,12.15 5.059,15.176c1.816,3.027 4.454,4.454 7.913,4.281c2.421,-0 4.496,-0.649 6.226,-1.946c1.729,-1.297 3.459,-3.07 5.188,-5.318l3.632,3.113c-4.323,5.362 -8.907,9.296 -13.749,11.804c-4.843,2.508 -10.983,3.762 -18.42,3.762c-8.301,-0 -15.306,-1.946 -21.013,-5.837c-5.708,-3.892 -9.599,-11.286 -11.675,-22.182l-4.929,-25.942c-1.383,-7.264 -2.983,-13.664 -4.799,-19.198c-1.816,-5.534 -4.281,-9.858 -7.394,-12.971c-3.113,-3.114 -7.696,-4.67 -13.75,-4.67l-28.018,-0l-0.519,-4.41Z" style="fill:#708090;fill-rule:nonzero;"/><path d="M3160.72,129.015c17.642,-0 33.121,3.718 46.438,11.155c13.317,7.437 23.651,18.117 31.002,32.039c7.35,13.923 11.025,30.829 11.025,50.719c0,19.37 -3.761,36.32 -11.285,50.848c-7.523,14.527 -17.987,25.856 -31.39,33.985c-13.404,8.128 -28.754,12.193 -46.049,12.193c-17.641,-0 -33.12,-3.719 -46.438,-11.156c-13.317,-7.437 -23.651,-18.16 -31.001,-32.169c-7.351,-14.009 -11.026,-30.872 -11.026,-50.588c0,-19.371 3.805,-36.32 11.415,-50.848c7.61,-14.528 18.073,-25.856 31.391,-33.985c13.317,-8.129 28.623,-12.193 45.918,-12.193Zm-1.037,4.669c-10.204,0 -19.068,3.892 -26.592,11.675c-7.523,7.783 -13.36,18.506 -17.511,32.169c-4.151,13.663 -6.226,29.488 -6.226,47.475c-0,18.333 2.335,34.288 7.004,47.865c4.67,13.576 10.983,24.04 18.939,31.39c7.955,7.351 16.689,11.026 26.202,11.026c10.204,-0 19.068,-3.891 26.591,-11.674c7.524,-7.783 13.361,-18.549 17.512,-32.299c4.15,-13.75 6.226,-29.532 6.226,-47.346c-0,-18.506 -2.335,-34.504 -7.005,-47.994c-4.669,-13.49 -10.939,-23.91 -18.808,-31.261c-7.87,-7.35 -16.647,-11.026 -26.332,-11.026Z" style="fill:#708090;fill-rule:nonzero;"/></g></g></svg>